<?xml version="1.0" encoding="utf-8"?>
<!-- Generator: Adobe Illustrator 22.1.0, SVG Export Plug-In . SVG Version: 6.00 Build 0)  -->
<svg version="1.1" id="Layer_1" xmlns="http://www.w3.org/2000/svg" xmlns:xlink="http://www.w3.org/1999/xlink" x="0px" y="0px"
	 viewBox="0 0 283.5 283.5" style="enable-background:new 0 0 283.5 283.5;" xml:space="preserve">
<style type="text/css">
	.st0{fill-rule:evenodd;clip-rule:evenodd;fill:#FFFFFF;}
</style>
<path class="st0" d="M163.5,70.9H120c-39.7,0-49.1,9.4-49.1,49.1v43.5c0,39.7,9.4,49.1,49.1,49.1h43.5c39.7,0,49.1-9.4,49.1-49.1
	V120C212.6,80.3,203.1,70.9,163.5,70.9z M185.3,172H175c-3.9,0-5.1-3.1-12.1-10.2c-6.1-5.9-8.8-6.7-10.3-6.7c-2.1,0-2.7,0.6-2.7,3.5
	v9.3c0,2.5-0.8,4-7.4,4c-10.9,0-23-6.6-31.5-18.9c-12.8-18-16.3-31.5-16.3-34.3c0-1.5,0.6-2.9,3.5-2.9h10.3c2.6,0,3.6,1.2,4.6,4
	c5.1,14.7,13.6,27.6,17.1,27.6c1.3,0,1.9-0.6,1.9-3.9v-15.2c-0.4-7-4.1-7.6-4.1-10.1c0-1.2,1-2.4,2.6-2.4h16.2c2.2,0,3,1.2,3,3.8
	v20.5c0,2.2,1,3,1.6,3c1.3,0,2.4-0.8,4.8-3.2c7.4-8.3,12.7-21.1,12.7-21.1c0.7-1.5,1.9-2.9,4.5-2.9h10.3c3.1,0,3.8,1.6,3.1,3.8
	c-1.3,6-13.9,23.8-13.9,23.8c-1.1,1.8-1.5,2.6,0,4.6c1.1,1.5,4.7,4.6,7.1,7.4c4.4,5,7.8,9.2,8.7,12.1
	C189.7,170.5,188.2,172,185.3,172z"/>
</svg>
